<svg width="16" height="16" viewBox="0 0 16 16" fill="none" xmlns="http://www.w3.org/2000/svg">
<path d="M8.66634 8.66666H7.33301V4.66666H8.66634M8.66634 11.3333H7.33301V9.99999H8.66634M7.99967 1.33333C7.1242 1.33333 6.25729 1.50577 5.44845 1.8408C4.63961 2.17583 3.90469 2.66689 3.28563 3.28595C2.03539 4.53619 1.33301 6.23188 1.33301 7.99999C1.33301 9.7681 2.03539 11.4638 3.28563 12.714C3.90469 13.3331 4.63961 13.8242 5.44845 14.1592C6.25729 14.4942 7.1242 14.6667 7.99967 14.6667C9.76778 14.6667 11.4635 13.9643 12.7137 12.714C13.964 11.4638 14.6663 9.7681 14.6663 7.99999C14.6663 7.12452 14.4939 6.25761 14.1589 5.44877C13.8238 4.63993 13.3328 3.90501 12.7137 3.28595C12.0947 2.66689 11.3597 2.17583 10.5509 1.8408C9.74206 1.50577 8.87515 1.33333 7.99967 1.33333Z" fill="currentColor"/>
</svg>
