<svg viewBox="0 0 17 16" fill="none" xmlns="http://www.w3.org/2000/svg">
    <path d="M5.00016 11.3333H9.66683V10H5.00016V11.3333ZM5.00016 8.66667H11.6668V7.33333H5.00016V8.66667ZM5.00016 6H11.6668V4.66667H5.00016V6ZM3.66683 14C3.30016 14 2.98627 13.8694 2.72516 13.6083C2.46405 13.3472 2.3335 13.0333 2.3335 12.6667V3.33333C2.3335 2.96667 2.46405 2.65278 2.72516 2.39167C2.98627 2.13056 3.30016 2 3.66683 2H13.0002C13.3668 2 13.6807 2.13056 13.9418 2.39167C14.2029 2.65278 14.3335 2.96667 14.3335 3.33333V12.6667C14.3335 13.0333 14.2029 13.3472 13.9418 13.6083C13.6807 13.8694 13.3668 14 13.0002 14H3.66683ZM3.66683 12.6667H13.0002V3.33333H3.66683V12.6667Z"
          fill="currentColor"/>
</svg>
