<svg width="20" height="20" viewBox="0 0 20 20" xmlns="http://www.w3.org/2000/svg">
    <path d="M18 14.3077L13.8974 18.4103L11.0256 15.5385L12.2564 14.3077L13.8974 15.9487L16.7692 13.0769L18 14.3077ZM3.64103 2C2.73026 2 2 2.73846 2 3.64103V16.7692C2 17.68 2.73026 18.4103 3.64103 18.4103H10.0492C9.75385 17.9015 9.54872 17.3436 9.45026 16.7692H3.64103V3.64103H9.38462V7.74359H13.4872V11.0913C13.7579 11.0503 14.0369 11.0256 14.3077 11.0256C14.5867 11.0256 14.8574 11.0503 15.1282 11.0913V6.92308L10.2051 2M5.28205 10.2051V11.8462H11.8462V10.2051M5.28205 13.4872V15.1282H9.38462V13.4872H5.28205Z" fill="currentColor"/>
</svg>
