<svg viewBox="0 0 16 16" fill="currentColor" xmlns="http://www.w3.org/2000/svg">
    <path d="M14.5455 11.6364H4.36364V1.45455H14.5455M14.5455 0H4.36364C3.97787 0 3.6079 0.153246 3.33512 0.426027C3.06234 0.698807 2.90909 1.06878 2.90909 1.45455V11.6364C2.90909 12.0221 3.06234 12.3921 3.33512 12.6649C3.6079 12.9377 3.97787 13.0909 4.36364 13.0909H14.5455C14.9312 13.0909 15.3012 12.9377 15.574 12.6649C15.8468 12.3921 16 12.0221 16 11.6364V1.45455C16 1.06878 15.8468 0.698807 15.574 0.426027C15.3012 0.153246 14.9312 0 14.5455 0ZM1.45455 2.90909H0V14.5455C0 14.9312 0.153246 15.3012 0.426027 15.574C0.698807 15.8468 1.06878 16 1.45455 16H13.0909V14.5455H1.45455M10.88 6.75636L8.88 9.33091L7.45455 7.61455L5.45455 10.1818H13.4545L10.88 6.75636Z"/>
</svg>
