<svg width="20" height="20" viewBox="0 0 20 20" fill="none" xmlns="http://www.w3.org/2000/svg">
<path d="M15.4537 16.5455H7.45366V6.36364H15.4537M15.4537 4.90909H7.45366C7.06789 4.90909 6.69792 5.06234 6.42514 5.33512C6.15236 5.6079 5.99912 5.97787 5.99912 6.36364V16.5455C5.99912 16.9312 6.15236 17.3012 6.42514 17.574C6.69792 17.8468 7.06789 18 7.45366 18H15.4537C15.8394 18 16.2094 17.8468 16.4822 17.574C16.755 17.3012 16.9082 16.9312 16.9082 16.5455V6.36364C16.9082 5.97787 16.755 5.6079 16.4822 5.33512C16.2094 5.06234 15.8394 4.90909 15.4537 4.90909ZM13.2718 2H4.54457C4.1588 2 3.78883 2.15325 3.51605 2.42603C3.24327 2.69881 3.09003 3.06878 3.09003 3.45455V13.6364H4.54457V3.45455H13.2718V2Z" fill="currentColor"/>
</svg>
