<svg width="20" height="21" viewBox="0 0 20 21" fill="none" xmlns="http://www.w3.org/2000/svg">
<g id="ic/20/datasets">
<path id="Vector" d="M10 2.5C6.1325 2.5 3 4.06625 3 6V14.75C3 16.6838 6.14125 18.25 10 18.25C13.8587 18.25 17 16.6838 17 14.75V6C17 4.06625 13.8675 2.5 10 2.5ZM15.25 14.75C15.25 15.1875 13.3862 16.5 10 16.5C6.61375 16.5 4.75 15.1875 4.75 14.75V12.7988C6.15875 13.4813 8.005 13.875 10 13.875C11.995 13.875 13.8412 13.4813 15.25 12.7988V14.75ZM15.25 10.7688C14.1125 11.6 12.1175 12.125 10 12.125C7.8825 12.125 5.8875 11.6 4.75 10.7688V8.31C6.03625 9.03625 7.90875 9.5 10 9.5C12.0913 9.5 13.9637 9.03625 15.25 8.31V10.7688ZM10 7.75C6.61375 7.75 4.75 6.4375 4.75 6C4.75 5.5625 6.61375 4.25 10 4.25C13.3862 4.25 15.25 5.5625 15.25 6C15.25 6.4375 13.3862 7.75 10 7.75Z" fill="currentColor"/>
</g>
</svg>
