<svg width="20" height="20" viewBox="0 0 20 20" fill="none" xmlns="http://www.w3.org/2000/svg">
<path d="M13 10C13 9.60218 13.158 9.22064 13.4393 8.93934C13.7206 8.65804 14.1022 8.5 14.5 8.5C14.8978 8.5 15.2794 8.65804 15.5607 8.93934C15.842 9.22064 16 9.60218 16 10C16 10.3978 15.842 10.7794 15.5607 11.0607C15.2794 11.342 14.8978 11.5 14.5 11.5C14.1022 11.5 13.7206 11.342 13.4393 11.0607C13.158 10.7794 13 10.3978 13 10ZM8.5 10C8.5 9.60218 8.65804 9.22064 8.93934 8.93934C9.22064 8.65804 9.60218 8.5 10 8.5C10.3978 8.5 10.7794 8.65804 11.0607 8.93934C11.342 9.22064 11.5 9.60218 11.5 10C11.5 10.3978 11.342 10.7794 11.0607 11.0607C10.7794 11.342 10.3978 11.5 10 11.5C9.60218 11.5 9.22064 11.342 8.93934 11.0607C8.65804 10.7794 8.5 10.3978 8.5 10ZM4 10C4 9.60218 4.15804 9.22064 4.43934 8.93934C4.72064 8.65804 5.10218 8.5 5.5 8.5C5.89782 8.5 6.27936 8.65804 6.56066 8.93934C6.84196 9.22064 7 9.60218 7 10C7 10.3978 6.84196 10.7794 6.56066 11.0607C6.27936 11.342 5.89782 11.5 5.5 11.5C5.10218 11.5 4.72064 11.342 4.43934 11.0607C4.15804 10.7794 4 10.3978 4 10Z" fill="currentColor"/>
</svg>
