<svg viewBox="0 0 46 75" fill="none" xmlns="http://www.w3.org/2000/svg">
    <path d="M23 75C35.7025 75 46 72.7614 46 70C46 67.2386 35.7025 65 23 65C10.2975 65 0 67.2386 0 70C0 72.7614 10.2975 75 23 75Z"
          fill="#F5F5F5"/>
    <path fill-rule="evenodd" clip-rule="evenodd"
          d="M14.75 22.0819C14.75 20.4294 16.0931 19.0898 17.75 19.0898H28.25C29.9069 19.0898 31.25 20.4294 31.25 22.0819C31.25 23.7344 29.9069 25.074 28.25 25.074H28.1583V37.7903C35.5856 40.0023 41 46.8679 41 54.9948C41 61.3261 37.7139 66.8918 32.75 70.0881L23 70.0898L13.25 70.0881C8.28609 66.8918 5 61.3261 5 54.9948C5 46.8679 10.4144 40.0023 17.8417 37.7903V25.074H17.75C16.0931 25.074 14.75 23.7344 14.75 22.0819ZM17 53.4988C18.2426 53.4988 19.25 52.4941 19.25 51.2547C19.25 50.0153 18.2426 49.0106 17 49.0106C15.7574 49.0106 14.75 50.0153 14.75 51.2547C14.75 52.4941 15.7574 53.4988 17 53.4988ZM29 53.4988C30.2426 53.4988 31.25 52.4941 31.25 51.2547C31.25 50.0153 30.2426 49.0106 29 49.0106C27.7574 49.0106 26.75 50.0153 26.75 51.2547C26.75 52.4941 27.7574 53.4988 29 53.4988Z"
          fill="#FAFAFA"/>
    <path d="M15.9844 61.8372C17.1228 59.4281 19.9826 57.9869 22.9999 57.9869C26.0172 57.9869 28.877 59.4281 30.0154 61.8372M17.75 19.0898C16.0931 19.0898 14.75 20.4294 14.75 22.0819C14.75 23.7344 16.0931 25.074 17.75 25.074H17.8417V37.7903C10.4144 40.0023 5 46.8679 5 54.9948C5 61.3261 8.28609 66.8918 13.25 70.0881L23 70.0898L32.75 70.0881C37.7139 66.8918 41 61.3261 41 54.9948C41 46.8679 35.5856 40.0023 28.1583 37.7903V25.074H28.25C29.9069 25.074 31.25 23.7344 31.25 22.0819C31.25 20.4294 29.9069 19.0898 28.25 19.0898H17.75ZM19.25 51.2547C19.25 52.4941 18.2426 53.4988 17 53.4988C15.7574 53.4988 14.75 52.4941 14.75 51.2547C14.75 50.0153 15.7574 49.0106 17 49.0106C18.2426 49.0106 19.25 50.0153 19.25 51.2547ZM31.25 51.2547C31.25 52.4941 30.2426 53.4988 29 53.4988C27.7574 53.4988 26.75 52.4941 26.75 51.2547C26.75 50.0153 27.7574 49.0106 29 49.0106C30.2426 49.0106 31.25 50.0153 31.25 51.2547Z"
          stroke="#D9D9D9"/>
    <circle cx="25" cy="11" r="3" fill="#FAFAFA" stroke="#D9D9D9"/>
    <circle cx="20" cy="3.08984" r="2" fill="#FAFAFA" stroke="#D9D9D9"/>
</svg>
