<svg viewBox="0 0 8 14" fill="none" xmlns="http://www.w3.org/2000/svg">
    <path d="M0.5 0V1.4H1.2V11.2C1.2 11.9426 1.495 12.6548 2.0201 13.1799C2.5452 13.705 3.25739 14 4 14C4.74261 14 5.4548 13.705 5.9799 13.1799C6.505 12.6548 6.8 11.9426 6.8 11.2V1.4H7.5V0H0.5ZM3.3 9.8C2.88 9.8 2.6 9.52 2.6 9.1C2.6 8.68 2.88 8.4 3.3 8.4C3.72 8.4 4 8.68 4 9.1C4 9.52 3.72 9.8 3.3 9.8ZM4.7 7C4.28 7 4 6.72 4 6.3C4 5.88 4.28 5.6 4.7 5.6C5.12 5.6 5.4 5.88 5.4 6.3C5.4 6.72 5.12 7 4.7 7ZM5.4 3.5H2.6V1.4H5.4V3.5Z"
          fill="currentColor"/>
</svg>
