<svg 
    width="20" 
    height="20" 
    viewBox="0 0 20 20" 
    fill="none" 
    xmlns="http://www.w3.org/2000/svg"
>
    <g>
        <path
            d="M10 1.5C8.88376 1.5 7.77846 1.71986 6.74719 2.14702C5.71592 2.57419 4.77889 3.20029 3.98959 3.98959C2.39553 5.58365 1.5 7.74566 1.5 10C1.5 13.757 3.9395 16.9445 7.314 18.075C7.739 18.143 7.875 17.8795 7.875 17.65C7.875 17.4545 7.875 16.919 7.875 16.2135C5.5205 16.7235 5.019 15.0745 5.019 15.0745C4.628 14.0885 4.0755 13.825 4.0755 13.825C3.302 13.298 4.135 13.315 4.135 13.315C4.985 13.3745 5.4355 14.1905 5.4355 14.1905C6.175 15.4825 7.4245 15.1 7.909 14.896C7.9855 14.3435 8.2065 13.9695 8.4445 13.757C6.5575 13.5445 4.577 12.8135 4.577 9.575C4.577 8.6315 4.9 7.875 5.4525 7.2715C5.3675 7.059 5.07 6.175 5.5375 5.0275C5.5375 5.0275 6.2515 4.798 7.875 5.8945C8.5465 5.7075 9.2775 5.614 10 5.614C10.7225 5.614 11.4535 5.7075 12.125 5.8945C13.7485 4.798 14.4625 5.0275 14.4625 5.0275C14.93 6.175 14.6325 7.059 14.5475 7.2715C15.1 7.875 15.423 8.6315 15.423 9.575C15.423 12.822 13.434 13.536 11.5385 13.7485C11.8445 14.012 12.125 14.5305 12.125 15.321C12.125 16.46 12.125 17.378 12.125 17.65C12.125 17.8795 12.261 18.1515 12.6945 18.075C16.069 16.936 18.5 13.757 18.5 10C18.5 8.88377 18.2801 7.77846 17.853 6.74719C17.4258 5.71592 16.7997 4.77889 16.0104 3.98959C15.2211 3.20029 14.2841 2.57419 13.2528 2.14702C12.2215 1.71986 11.1162 1.5 10 1.5Z" 
            fill="#3C78D8"
        />
    </g>
</svg>
