<svg width="20" height="20" viewBox="0 0 20 20" fill="none" xmlns="http://www.w3.org/2000/svg">
<path d="M9.16699 7.49999H10.8337V5.83332H9.16699M10.0003 16.6667C6.32533 16.6667 3.33366 13.675 3.33366 9.99999C3.33366 6.32499 6.32533 3.33332 10.0003 3.33332C13.6753 3.33332 16.667 6.32499 16.667 9.99999C16.667 13.675 13.6753 16.6667 10.0003 16.6667ZM10.0003 1.66666C8.90598 1.66666 7.82234 1.8822 6.8113 2.30099C5.80025 2.71978 4.88159 3.33361 4.10777 4.10743C2.54497 5.67024 1.66699 7.78985 1.66699 9.99999C1.66699 12.2101 2.54497 14.3297 4.10777 15.8925C4.88159 16.6664 5.80025 17.2802 6.8113 17.699C7.82234 18.1178 8.90598 18.3333 10.0003 18.3333C12.2105 18.3333 14.3301 17.4553 15.8929 15.8925C17.4557 14.3297 18.3337 12.2101 18.3337 9.99999C18.3337 8.90564 18.1181 7.82201 17.6993 6.81096C17.2805 5.79991 16.6667 4.88125 15.8929 4.10743C15.1191 3.33361 14.2004 2.71978 13.1894 2.30099C12.1783 1.8822 11.0947 1.66666 10.0003 1.66666ZM9.16699 14.1667H10.8337V9.16666H9.16699V14.1667Z" fill="currentColor"/>
</svg>
