<svg width="84" height="38" viewBox="0 0 84 38" fill="none" xmlns="http://www.w3.org/2000/svg">
    <path d="M15.1856 35.2462C12.3445 35.2462 9.76534 34.5204 7.448 33.0689C5.13066 31.6164 3.30976 29.6418 1.9853 27.1451C0.661767 24.6475 0 21.918 0 18.9566C0 15.9952 0.661767 13.2662 1.9853 10.7695C3.30976 8.27185 5.13066 6.29727 7.448 4.84574C9.76534 3.39324 12.3445 2.66699 15.1856 2.66699C18.0266 2.66699 20.6053 3.39324 22.9217 4.84574C25.2391 6.29727 27.06 8.27185 28.3844 10.7695C29.7089 13.2662 30.3711 15.9952 30.3711 18.9566C30.3711 21.918 29.7089 24.6475 28.3844 27.1451C27.06 29.6418 25.2391 31.6164 22.9217 33.0689C20.6053 34.5204 18.0266 35.2462 15.1856 35.2462ZM15.1856 31.7184C17.3089 31.7184 19.2601 31.174 21.0389 30.0851C22.8187 28.9962 24.2259 27.4864 25.2603 25.5555C26.2947 23.6247 26.812 21.425 26.812 18.9566C26.812 16.4881 26.2947 14.2885 25.2603 12.3576C24.2259 10.4268 22.8187 8.91692 21.0389 7.82803C19.2601 6.73914 17.3089 6.1947 15.1856 6.1947C13.0612 6.1947 11.1092 6.73914 9.3294 7.82803C7.55052 8.91692 6.14386 10.4268 5.10942 12.3576C4.07497 14.2885 3.55775 16.4881 3.55775 18.9566C3.55775 21.425 4.07497 23.6247 5.10942 25.5555C6.14386 27.4864 7.55052 28.9962 9.3294 30.0851C11.1092 31.174 13.0612 31.7184 15.1856 31.7184ZM35.5423 3.36408H45.5561C47.1835 3.36408 48.7005 3.75637 50.1072 4.54095C51.5138 5.32456 52.6379 6.42074 53.4793 7.82949C54.3207 9.23727 54.7414 10.8269 54.7414 12.5982C54.7414 14.0498 54.4311 15.3997 53.8104 16.648C53.1897 17.8964 52.3345 18.942 51.2446 19.7849C50.1557 20.6269 48.949 21.1927 47.6245 21.4824L47.5414 21.6137L55.8996 34.3755V34.5491H51.7627L43.6941 21.8309H39.0599V34.5491H35.5423V3.36408ZM45.3496 18.3907C46.3702 18.3907 47.3285 18.1438 48.2244 17.6499C49.1212 17.156 49.8384 16.4662 50.3759 15.5805C50.9144 14.6948 51.1836 13.7007 51.1836 12.5982C51.1836 11.6396 50.949 10.7248 50.4798 9.85366C50.0107 8.98255 49.3554 8.27137 48.5139 7.72012C47.6725 7.16789 46.7004 6.89178 45.5976 6.89178H39.0599V18.3907H45.3496ZM59.7891 3.36408H68.7264C71.7614 3.36408 74.4099 4.0247 76.6718 5.34595C78.9337 6.6672 80.6715 8.50373 81.8851 10.8555C83.0987 13.2073 83.7056 15.9077 83.7056 18.9566C83.7056 22.0055 83.0987 24.7058 81.8851 27.0576C80.6715 29.4094 78.9337 31.246 76.6718 32.5672C74.4099 33.8885 71.7614 34.5491 68.7264 34.5491H59.7891V3.36408ZM68.7264 31.0214C72.2297 31.0214 75.0088 29.9616 77.0639 27.8422C79.1189 25.7218 80.1464 22.7599 80.1464 18.9566C80.1464 15.1532 79.1189 12.1919 77.0639 10.0724C75.0088 7.95199 72.2297 6.89178 68.7264 6.89178H63.3067V31.0214H68.7264Z"
          fill="#3C78D8"/>
    <path fill-rule="evenodd" clip-rule="evenodd" d="M7.09424 23.6209V14.127H7.4489V23.6209H7.09424Z" fill="#090A0B"/>
    <path fill-rule="evenodd" clip-rule="evenodd" d="M23.041 23.6209V14.127H23.3957V23.6209H23.041Z" fill="#090A0B"/>
    <path fill-rule="evenodd" clip-rule="evenodd" d="M21.7715 23.6209V14.127H22.1262V23.6209H21.7715Z" fill="#090A0B"/>
    <path fill-rule="evenodd" clip-rule="evenodd"
          d="M18.196 13.576C19.2259 14.1111 20.4444 14.3554 21.446 14.2264L21.4891 14.597C20.4096 14.736 19.1219 14.4734 18.0391 13.9108C16.9592 13.3498 16.0477 12.471 15.7759 11.3496L16.1195 11.2573C16.3553 12.2302 17.1632 13.0395 18.196 13.576Z"
          fill="#090A0B"/>
    <path fill-rule="evenodd" clip-rule="evenodd"
          d="M15.9212 12.3488C15.9268 12.46 15.9323 12.5704 15.9323 12.6638H15.5776C15.5776 12.5811 15.5728 12.4853 15.5675 12.3777C15.5655 12.3381 15.5634 12.2968 15.5615 12.2539C15.5546 12.1001 15.5497 11.9312 15.5606 11.7748C15.5713 11.6224 15.5982 11.4587 15.6695 11.3283C15.7484 11.1837 15.8811 11.084 16.0674 11.084C16.5799 11.084 17.0465 11.398 17.4138 11.6501L17.2201 11.9628C16.8366 11.6996 16.4574 11.4573 16.0674 11.4573C16.0221 11.4573 16 11.4722 15.9769 11.5144C15.9462 11.5706 15.9239 11.6659 15.9144 11.8022C15.9051 11.9345 15.9089 12.0842 15.9158 12.2362C15.9174 12.2734 15.9193 12.3112 15.9212 12.3488Z"
          fill="#090A0B"/>
    <path fill-rule="evenodd" clip-rule="evenodd"
          d="M19.6268 26.9977C18.5439 27.5603 17.2563 27.8229 16.1768 27.6839L16.2198 27.3133C17.2215 27.4423 18.4399 27.198 19.4698 26.6629C20.5027 26.1264 21.3105 25.3171 21.5463 24.3442L21.89 24.4365C21.6182 25.5579 20.7067 26.4367 19.6268 26.9977Z"
          fill="#090A0B"/>
    <path fill-rule="evenodd" clip-rule="evenodd"
          d="M20.312 24.6633C20.6793 24.4112 21.146 24.0972 21.6584 24.0972C21.8447 24.0972 21.9774 24.1969 22.0564 24.3415C22.1276 24.4719 22.1545 24.6356 22.1652 24.788C22.1761 24.9444 22.1713 25.1133 22.1643 25.2671C22.1624 25.3099 22.1603 25.3512 22.1584 25.3909C22.153 25.4985 22.1482 25.5943 22.1482 25.677H21.7936C21.7936 25.5836 21.7991 25.4731 21.8046 25.362C21.8065 25.3243 21.8084 25.2866 21.8101 25.2494C21.8169 25.0973 21.8207 24.9477 21.8115 24.8154C21.8019 24.6791 21.7796 24.5838 21.7489 24.5275C21.7259 24.4854 21.7037 24.4705 21.6584 24.4705C21.2684 24.4705 20.8892 24.7128 20.5057 24.976L20.312 24.6633Z"
          fill="#090A0B"/>
    <path fill-rule="evenodd" clip-rule="evenodd"
          d="M9.06819 18.4265C8.65408 18.6371 8.26195 18.8535 8.06819 19.1989L7.91549 19.104L8.06819 19.1989C8.05457 19.2232 8.05311 19.2383 8.05344 19.2475C8.05382 19.2579 8.05722 19.2748 8.07183 19.3002C8.10408 19.3561 8.17376 19.4242 8.28431 19.5013C8.39147 19.576 8.51971 19.6476 8.65117 19.7176C8.68341 19.7348 8.7162 19.752 8.74889 19.7692C8.84511 19.8198 8.94051 19.8699 9.01886 19.9165L8.84453 20.2416C8.77466 20.2001 8.69139 20.1563 8.59805 20.1072C8.56372 20.0892 8.52802 20.0704 8.49113 20.0508C8.35828 19.9801 8.21413 19.9002 8.08843 19.8125C7.96612 19.7272 7.84249 19.622 7.76857 19.4937C7.73009 19.427 7.7022 19.349 7.69903 19.2618C7.69581 19.1733 7.71853 19.088 7.7628 19.0091C8.02018 18.5503 8.51904 18.2911 8.91392 18.0903L9.06819 18.4265Z"
          fill="#090A0B"/>
    <path fill-rule="evenodd" clip-rule="evenodd"
          d="M10.9845 16.9671C11.7563 15.8427 12.1315 14.515 11.7934 13.4711L12.1291 13.3506C12.5204 14.5589 12.0753 16.0154 11.272 17.1857C10.4672 18.3582 9.26308 19.3031 8.05268 19.4584L8.00977 19.0878C9.08856 18.9494 10.2142 18.0893 10.9845 16.9671Z"
          fill="#090A0B"/>
    <path fill-rule="evenodd" clip-rule="evenodd"
          d="M15.8081 27.3833L7.81982 22.6356L7.9942 22.3105L15.9825 27.0582L15.8081 27.3833Z" fill="#090A0B"/>
    <path fill-rule="evenodd" clip-rule="evenodd"
          d="M15.1729 28.5146L7.18457 23.767L7.35894 23.4419L15.3473 28.1895L15.1729 28.5146Z" fill="#090A0B"/>
    <path fill-rule="evenodd" clip-rule="evenodd"
          d="M15.3473 9.54824L7.35894 14.2959L7.18457 13.9708L15.1729 9.22314L15.3473 9.54824Z" fill="#090A0B"/>
    <path fill-rule="evenodd" clip-rule="evenodd"
          d="M15.9825 10.6801L7.9942 15.4277L7.81982 15.1026L15.8081 10.355L15.9825 10.6801Z" fill="#090A0B"/>
    <path fill-rule="evenodd" clip-rule="evenodd"
          d="M7.12695 23.6184C7.12695 23.536 7.19177 23.4692 7.27172 23.4692C7.31012 23.4692 7.34694 23.485 7.37409 23.5129C7.40124 23.5409 7.41649 23.5789 7.41649 23.6184C7.41649 23.7008 7.35167 23.7676 7.27172 23.7676C7.19177 23.7676 7.12695 23.7008 7.12695 23.6184Z"
          fill="#090A0B"/>
    <path fill-rule="evenodd" clip-rule="evenodd"
          d="M7.27167 24.247C7.64321 24.247 7.90468 23.9433 7.90468 23.6184C7.90468 23.453 7.8369 23.2931 7.72132 23.1759C7.60989 23.063 7.45404 22.9898 7.27167 22.9898C6.90013 22.9898 6.63866 23.2935 6.63866 23.6184C6.63866 23.7777 6.69983 23.9349 6.81584 24.0545C6.93261 24.1749 7.09608 24.247 7.27167 24.247ZM6.34912 23.6184C6.34912 23.1287 6.74022 22.6914 7.27167 22.6914C7.52405 22.6914 7.76116 22.795 7.93223 22.9713C8.10254 23.1468 8.19421 23.38 8.19421 23.6184C8.19421 24.1081 7.80311 24.5454 7.27167 24.5454C6.74022 24.5454 6.34912 24.1081 6.34912 23.6184Z"
          fill="#090A0B"/>
    <path fill-rule="evenodd" clip-rule="evenodd"
          d="M7.12695 14.1165C7.12695 14.0341 7.19177 13.9673 7.27172 13.9673C7.31012 13.9673 7.34694 13.983 7.37409 14.011C7.40124 14.039 7.41649 14.0769 7.41649 14.1165C7.41649 14.1989 7.35167 14.2657 7.27172 14.2657C7.19177 14.2657 7.12695 14.1989 7.12695 14.1165Z"
          fill="#090A0B"/>
    <path fill-rule="evenodd" clip-rule="evenodd"
          d="M7.27167 14.745C7.64321 14.745 7.90468 14.4413 7.90468 14.1164C7.90468 13.951 7.8369 13.7911 7.72132 13.674C7.60989 13.561 7.45404 13.4879 7.27167 13.4879C6.90014 13.4879 6.63866 13.7915 6.63866 14.1164C6.63866 14.2757 6.69983 14.433 6.81584 14.5526C6.93262 14.6729 7.0961 14.745 7.27167 14.745ZM6.34912 14.1164C6.34912 13.6267 6.74022 13.1895 7.27167 13.1895C7.52403 13.1895 7.76114 13.293 7.93223 13.4693C8.10254 13.6448 8.19421 13.878 8.19421 14.1164C8.19421 14.6061 7.80311 15.0434 7.27167 15.0434C6.74023 15.0434 6.34912 14.6061 6.34912 14.1164Z"
          fill="#090A0B"/>
</svg>
