<svg viewBox="0 0 35 36" fill="none" xmlns="http://www.w3.org/2000/svg">
    <g filter="url(#filter0_ii_4564_29051)">
        <path fill-rule="evenodd" clip-rule="evenodd"
              d="M27.6889 4.39844L21.1909 0.5L14.2182 4.68359L9.99945 2C9.8139 1.88672 9.60687 1.84375 9.40765 1.85938C9.0971 1.88281 8.80218 2.05078 8.62835 2.33984C8.53851 2.49219 8.49163 2.65625 8.48577 2.82031C8.47406 3.17188 8.64788 3.51953 8.9721 3.71484L13.6909 6.69922V14L21.1909 18.5L25.6948 15.7969C25.3803 15.2734 25.1987 14.6562 25.1987 14C25.1987 12.7344 25.8705 11.625 26.8784 11.0117C27.4096 10.6875 28.0327 10.5 28.6987 10.5L28.6909 6.13281L33.5326 3.44531C34.0151 3.17578 34.1909 2.56641 33.9213 2.08594C33.7709 1.8125 33.5112 1.63672 33.228 1.58594C33.0073 1.54688 32.7729 1.57812 32.5619 1.69531L27.6889 4.39844ZM21.0854 2.88672L20.9369 2.95312L16.058 5.89844C15.5834 6.18359 15.433 6.79688 15.7182 7.26953C16.0034 7.74219 16.6166 7.89453 17.0912 7.60938L20.9741 5.26562C21.1889 5.13672 21.4584 5.13281 21.6772 5.25781L24.2006 6.67578C24.683 6.94531 25.2924 6.77344 25.5619 6.29297C25.7202 6.01172 25.728 5.6875 25.6108 5.41016C25.5268 5.21484 25.3803 5.04297 25.1811 4.92969L21.642 2.94141L21.5385 2.89453C21.4467 2.86328 21.351 2.85156 21.2553 2.85547L21.0854 2.88672ZM30.1987 14C30.1987 14.8281 29.5268 15.5 28.6987 15.5C27.8705 15.5 27.1987 14.8281 27.1987 14C27.1987 13.5625 27.3862 13.168 27.6869 12.8906C27.9545 12.6484 28.31 12.5 28.6987 12.5C29.5268 12.5 30.1987 13.1719 30.1987 14ZM19.9994 20.5L12.4994 16L5.96819 19.918L1.51312 17.2461C1.04046 16.9609 0.427179 17.1133 0.142023 17.5859C-0.0435241 17.8984 -0.041571 18.2695 0.114679 18.5703C0.19671 18.7266 0.32171 18.8633 0.485773 18.9609L4.99944 21.668V29.5L9.49749 32.1992C10.1088 31.1797 11.2241 30.5 12.4994 30.5C13.7748 30.5 14.8901 31.1797 15.5014 32.1992L19.9994 29.5V20.5ZM12.5639 18.3555C12.4545 18.3633 12.3451 18.3945 12.2455 18.4531L7.36663 21.3984C7.00335 21.6172 6.82952 22.0273 6.89593 22.418C6.91741 22.5391 6.96038 22.6602 7.02679 22.7695C7.14007 22.957 7.30609 23.0938 7.49359 23.1758C7.60296 23.2227 7.72015 23.25 7.83734 23.2539C8.02874 23.2617 8.22406 23.2148 8.39984 23.1094L12.2826 20.7656C12.4975 20.6367 12.767 20.6328 12.9858 20.7578L15.5092 22.1758C15.7494 22.3086 16.0209 22.332 16.2651 22.2656C16.5131 22.1992 16.7358 22.0352 16.8705 21.793C17.142 21.3125 16.9701 20.7031 16.4897 20.4297L12.9506 18.4414C12.8315 18.375 12.6967 18.3477 12.5639 18.3555ZM13.9994 34C13.9994 34.2305 13.9467 34.4492 13.8549 34.6406C13.7846 34.7891 13.6909 34.9258 13.5795 35.043C13.4174 35.2109 13.2182 35.3398 12.9936 35.418C12.8393 35.4727 12.6733 35.5 12.4994 35.5C11.6713 35.5 10.9994 34.8281 10.9994 34C10.9994 33.1719 11.6713 32.5 12.4994 32.5C13.3276 32.5 13.9994 33.1719 13.9994 34Z"
              fill="currentColor"/>
    </g>
    <defs>
        <filter id="filter0_ii_4564_29051" x="0" y="0.5" width="42.0478" height="43" filterUnits="userSpaceOnUse"
                color-interpolation-filters="sRGB">
            <feFlood flood-opacity="0" result="BackgroundImageFix"/>
            <feBlend mode="normal" in="SourceGraphic" in2="BackgroundImageFix" result="shape"/>
            <feColorMatrix in="SourceAlpha" type="matrix" values="0 0 0 0 0 0 0 0 0 0 0 0 0 0 0 0 0 0 127 0"
                           result="hardAlpha"/>
            <feOffset dx="8" dy="8"/>
            <feGaussianBlur stdDeviation="8"/>
            <feComposite in2="hardAlpha" operator="arithmetic" k2="-1" k3="1"/>
            <feColorMatrix type="matrix" values="0 0 0 0 0 0 0 0 0 0.0352941 0 0 0 0 0.137255 0 0 0 0.1 0"/>
            <feBlend mode="normal" in2="shape" result="effect1_innerShadow_4564_29051"/>
            <feColorMatrix in="SourceAlpha" type="matrix" values="0 0 0 0 0 0 0 0 0 0 0 0 0 0 0 0 0 0 127 0"
                           result="hardAlpha"/>
            <feOffset dx="4" dy="2"/>
            <feGaussianBlur stdDeviation="5"/>
            <feComposite in2="hardAlpha" operator="arithmetic" k2="-1" k3="1"/>
            <feColorMatrix type="matrix" values="0 0 0 0 0 0 0 0 0 0.0352941 0 0 0 0 0.137255 0 0 0 0.1 0"/>
            <feBlend mode="normal" in2="effect1_innerShadow_4564_29051" result="effect2_innerShadow_4564_29051"/>
        </filter>
    </defs>
</svg>
