<svg viewBox="0 0 14 14" fill="none" xmlns="http://www.w3.org/2000/svg">
    <path d="M13.0193 14.002L9.17025 10.1527C8.70492 10.5369 8.16978 10.8376 7.56485 11.0548C6.95992 11.2719 6.33412 11.3805 5.68747 11.3805C4.0968 11.3805 2.7506 10.8298 1.64884 9.72834C0.547092 8.6269 -0.00378418 7.281 -0.00378418 5.69065C-0.00378418 4.10045 0.546937 2.75409 1.64838 1.65156C2.74982 0.549188 4.09572 -0.0019989 5.68607 -0.0019989C7.27627 -0.0019989 8.62263 0.548877 9.72516 1.65063C10.8275 2.75238 11.3787 4.09859 11.3787 5.68925C11.3787 6.3539 11.2672 6.9887 11.0441 7.59363C10.8209 8.19856 10.5232 8.7247 10.1509 9.17204L14 13.0211L13.0193 14.002ZM5.68747 9.98474C6.88663 9.98474 7.9023 9.56858 8.73447 8.73625C9.56679 7.90408 9.98295 6.88842 9.98295 5.68925C9.98295 4.49009 9.56679 3.47442 8.73447 2.64225C7.9023 1.80993 6.88663 1.39377 5.68747 1.39377C4.4883 1.39377 3.47264 1.80993 2.64047 2.64225C1.80814 3.47442 1.39198 4.49009 1.39198 5.68925C1.39198 6.88842 1.80814 7.90408 2.64047 8.73625C3.47264 9.56858 4.4883 9.98474 5.68747 9.98474Z"
          fill="currentColor"/>
</svg>
