<svg width="20" height="21" viewBox="0 0 20 21" fill="none" xmlns="http://www.w3.org/2000/svg">
<path d="M7.81095 18.4204L7.49254 15.8731C7.32007 15.8068 7.15755 15.7272 7.00498 15.6343C6.8524 15.5415 6.70315 15.442 6.55721 15.3358L4.18905 16.3308L2 12.5498L4.04975 10.9975C4.03648 10.9046 4.02985 10.8151 4.02985 10.7289V10.1915C4.02985 10.1053 4.03648 10.0158 4.04975 9.92288L2 8.37065L4.18905 4.58955L6.55721 5.58458C6.70315 5.47844 6.85572 5.37894 7.01493 5.28607C7.17413 5.1932 7.33333 5.1136 7.49254 5.04726L7.81095 2.5H12.1891L12.5075 5.04726C12.6799 5.1136 12.8425 5.1932 12.995 5.28607C13.1476 5.37894 13.2968 5.47844 13.4428 5.58458L15.8109 4.58955L18 8.37065L15.9502 9.92288C15.9635 10.0158 15.9701 10.1053 15.9701 10.1915V10.7289C15.9701 10.8151 15.9569 10.9046 15.9303 10.9975L17.9801 12.5498L15.791 16.3308L13.4428 15.3358C13.2968 15.442 13.1443 15.5415 12.9851 15.6343C12.8259 15.7272 12.6667 15.8068 12.5075 15.8731L12.1891 18.4204H7.81095ZM9.20398 16.8284H10.7761L11.0547 14.7189C11.466 14.6128 11.8474 14.4569 12.199 14.2512C12.5506 14.0456 12.8723 13.7968 13.1642 13.505L15.1343 14.3209L15.9104 12.9677L14.199 11.6741C14.2653 11.4884 14.3118 11.2927 14.3383 11.0871C14.3648 10.8814 14.3781 10.6725 14.3781 10.4602C14.3781 10.2479 14.3648 10.039 14.3383 9.83333C14.3118 9.62769 14.2653 9.43201 14.199 9.24627L15.9104 7.95274L15.1343 6.5995L13.1642 7.43532C12.8723 7.13018 12.5506 6.87479 12.199 6.66915C11.8474 6.46352 11.466 6.30763 11.0547 6.20149L10.796 4.09204H9.22388L8.94527 6.20149C8.534 6.30763 8.15257 6.46352 7.80099 6.66915C7.44942 6.87479 7.1277 7.12355 6.83582 7.41542L4.86567 6.5995L4.08955 7.95274L5.80099 9.22637C5.73466 9.42537 5.68823 9.62438 5.66169 9.82338C5.63516 10.0224 5.62189 10.2347 5.62189 10.4602C5.62189 10.6725 5.63516 10.8781 5.66169 11.0771C5.68823 11.2761 5.73466 11.4751 5.80099 11.6741L4.08955 12.9677L4.86567 14.3209L6.83582 13.4851C7.1277 13.7902 7.44942 14.0456 7.80099 14.2512C8.15257 14.4569 8.534 14.6128 8.94527 14.7189L9.20398 16.8284ZM10.0398 13.2463C10.8093 13.2463 11.466 12.9743 12.01 12.4303C12.5539 11.8864 12.8259 11.2297 12.8259 10.4602C12.8259 9.69071 12.5539 9.034 12.01 8.49005C11.466 7.9461 10.8093 7.67413 10.0398 7.67413C9.25705 7.67413 8.59701 7.9461 8.0597 8.49005C7.52239 9.034 7.25373 9.69071 7.25373 10.4602C7.25373 11.2297 7.52239 11.8864 8.0597 12.4303C8.59701 12.9743 9.25705 13.2463 10.0398 13.2463Z" fill="currentColor"/>
</svg>
