<svg viewBox="0 0 19 13" fill="none" xmlns="http://www.w3.org/2000/svg">
    <path d="M9.89649 10.0207L16.8757 3.0415L15.7923 1.95817L8.81315 8.93734L9.89649 10.0207ZM4.45898 11.8332C3.0701 11.7637 2.03537 11.4721 1.35482 10.9582C0.674262 10.4443 0.333984 9.70123 0.333984 8.729C0.333984 7.82623 0.705512 7.09359 1.44857 6.53109C2.19162 5.96859 3.22287 5.63178 4.54232 5.52067C5.08398 5.479 5.49023 5.3922 5.76107 5.26025C6.0319 5.12831 6.16732 4.94428 6.16732 4.70817C6.16732 4.34706 5.96246 4.07623 5.55273 3.89567C5.14301 3.71512 4.46593 3.58317 3.52148 3.49984L3.66732 1.83317C5.09787 1.94428 6.14996 2.23248 6.82357 2.69775C7.49718 3.16303 7.83398 3.83317 7.83398 4.70817C7.83398 5.44428 7.56662 6.02067 7.0319 6.43734C6.49718 6.854 5.70898 7.104 4.66732 7.18734C3.77843 7.25678 3.11176 7.41998 2.66732 7.67692C2.22287 7.93387 2.00065 8.28456 2.00065 8.729C2.00065 9.21512 2.1951 9.56581 2.58398 9.78109C2.97287 9.99637 3.62565 10.1248 4.54232 10.1665L4.45898 11.8332ZM10.2923 11.979L6.85482 8.5415L14.8132 0.583171C15.0909 0.305393 15.4208 0.166504 15.8027 0.166504C16.1847 0.166504 16.5145 0.305393 16.7923 0.583171L18.2507 2.0415C18.5284 2.31928 18.6673 2.64914 18.6673 3.03109C18.6673 3.41303 18.5284 3.74289 18.2507 4.02067L10.2923 11.979ZM6.97982 12.6665C6.74371 12.7221 6.53537 12.6596 6.35482 12.479C6.17426 12.2984 6.11176 12.0901 6.16732 11.854L6.85482 8.5415L10.2923 11.979L6.97982 12.6665Z"
          fill="currentColor"/>
</svg>
