<svg width="20" height="21" viewBox="0 0 20 21" fill="none" xmlns="http://www.w3.org/2000/svg">
<g id="ic/20/templates">
<path id="Vector" d="M5.00016 2C4.55814 2 4.13421 2.17559 3.82165 2.48816C3.50909 2.80072 3.3335 3.22464 3.3335 3.66667V17C3.3335 17.442 3.50909 17.8659 3.82165 18.1785C4.13421 18.4911 4.55814 18.6667 5.00016 18.6667H15.0002C15.4422 18.6667 15.8661 18.4911 16.1787 18.1785C16.4912 17.8659 16.6668 17.442 16.6668 17V7L11.6668 2H5.00016ZM5.00016 3.66667H10.8335V7.83333H15.0002V17H5.00016V3.66667ZM6.66683 10.3333V12H13.3335V10.3333H6.66683ZM6.66683 13.6667V15.3333H10.8335V13.6667H6.66683Z" fill="currentColor"/>
</g>
</svg>
