<svg viewBox="0 0 18 18" fill="none" xmlns="http://www.w3.org/2000/svg">
    <path d="M9.00032 15.6641C12.667 15.6641 15.667 12.6641 15.667 8.99739C15.667 5.33073 12.667 2.33073 9.00032 2.33073C5.33366 2.33073 2.33366 5.33073 2.33366 8.99739C2.33366 12.6641 5.33366 15.6641 9.00032 15.6641ZM9.00032 0.664062C13.5837 0.664062 17.3337 4.41406 17.3337 8.99739C17.3337 13.5807 13.5837 17.3307 9.00032 17.3307C4.41699 17.3307 0.666992 13.5807 0.666992 8.99739C0.666992 4.41406 4.41699 0.664062 9.00032 0.664062ZM9.41699 9.66406L5.41699 11.9974L4.83366 10.8307L8.16699 8.91406V4.83073H9.41699V9.66406Z"
          fill="currentColor"/>
</svg>
