<svg width="17" height="16" viewBox="0 0 17 16" fill="none" xmlns="http://www.w3.org/2000/svg">
    <path d="M7.89554 16C6.88094 15.8928 5.93642 15.6147 5.062 15.1658C4.18757 14.7169 3.42328 14.134 2.76913 13.4171C2.11498 12.7002 1.60101 11.8794 1.2272 10.9548C0.853404 10.0302 0.666504 9.04523 0.666504 8C0.666504 5.89615 1.36404 4.0871 2.75912 2.57286C4.1542 1.05863 5.86634 0.201005 7.89554 0V1.62814C6.30689 1.82915 4.97189 2.52931 3.89053 3.72864C2.80918 4.92797 2.26851 6.35176 2.26851 8C2.26851 9.64824 2.80918 11.072 3.89053 12.2714C4.97189 13.4707 6.30689 14.1709 7.89554 14.3719V16ZM7.89554 12.0201V7.05528L5.81294 9.14573L4.69154 8L8.69654 3.9799L12.7015 8L11.5601 9.12563L9.49754 7.05528V12.0201H7.89554ZM9.49754 16V14.3719C10.0849 14.3049 10.6423 14.1575 11.1696 13.9296C11.697 13.7018 12.1809 13.4137 12.6214 13.0653L13.7629 14.2312C13.1621 14.7136 12.5013 15.1089 11.7804 15.4171C11.0595 15.7253 10.2985 15.9196 9.49754 16ZM12.6014 2.93467C12.1609 2.58626 11.6803 2.29816 11.1596 2.07035C10.639 1.84255 10.0849 1.69514 9.49754 1.62814V0C10.2985 0.080402 11.0595 0.274707 11.7804 0.582915C12.5013 0.891122 13.1621 1.28643 13.7629 1.76884L12.6014 2.93467ZM14.8843 13.0854L13.7429 11.9397C14.09 11.4975 14.377 11.0117 14.6039 10.4824C14.8309 9.9531 14.9777 9.39363 15.0445 8.80402H16.6665C16.5864 9.60804 16.3895 10.3719 16.0758 11.0955C15.762 11.8191 15.3649 12.4824 14.8843 13.0854ZM15.0445 7.19598C14.9777 6.60637 14.8309 6.0469 14.6039 5.51759C14.377 4.98828 14.09 4.50251 13.7429 4.0603L14.8843 2.91457C15.3649 3.51759 15.762 4.1809 16.0758 4.90452C16.3895 5.62814 16.5864 6.39196 16.6665 7.19598H15.0445Z"
          fill="currentColor"/>
</svg>
